<?xml version="1.0" standalone="no"?><!DOCTYPE svg PUBLIC "-//W3C//DTD SVG 1.1//EN" "http://www.w3.org/Graphics/SVG/1.1/DTD/svg11.dtd"><svg xmlns="http://www.w3.org/2000/svg" version="1.1" width="1717.147" height="992.722" xmlns:xlink="http://www.w3.org/1999/xlink" xlink="http://www.w3.org/1999/xlink" style="position:relative;overflow:hidden;" viewBox="114.408 -12 1717.147 992.722"><defs/><g><g width="1054.722" height="0" transform="scale(1,1) translate(614.833,484.361)"><g fill="#545454" stroke="#545454" stroke-opacity="1" transform="scale(1,1) translate(0,0)"><path fill="none" stroke-width="1" stroke-dasharray="none" d="M0,0 L564.861,0 M0,0 L0,0 M1048.722,0 L564.861,0 M0,0 L0,0 M25,0 L25,0 M539.861,0 L539.861,0 M564.861,0 L564.861,0"/><g><g stroke-dasharray="none"><path d="M1048.722,-3L1054.722,0L1048.722,3z" stroke="none" fill-opacity="1"/></g></g></g></g><g width="149.5" height="50.167" transform="scale(1,1) translate(1669.555,459.361)"><g stroke="#CEE7E9" stroke-opacity="1" stroke-width="1" stroke-dasharray="none" width="149.5" height="50.167" transform="scale(1,1) translate(0,0)" fill="#CEE7E9" fill-opacity="1"><rect width="149.5" height="50.167"/></g><g width="144.5" height="45.166666666666664" transform="scale(1,1) translate(2.5,2.5)"><text width="144.5" height="15.277776718139648" transform="scale(1,1) translate(0,14.944444974263508)" xml:space="preserve"><tspan xml:space="preserve" text-rendering="optimizeSpeed" font-size="13.88888888888889" font-weight="normal" font-style="normal" text-decoration="none" fill="#333333" opacity="1" x="10.482" text-anchor="start" y="12.5" textLength="123.53512573242188" style="font-family: Arial, Helvetica Neue, Helvetica, sans-serif;">Baixa Produtividade</tspan></text></g></g><g width="409.028" height="409.028" transform="scale(1,1) translate(205.806,484.361)"><g fill="#545454" stroke="#545454" stroke-opacity="1" transform="scale(1,1) translate(0,0)"><path fill="none" stroke-width="1" stroke-dasharray="none" d="M384.028,25 L171.194,237.833 M384.028,25 L409.028,0 M171.194,237.833 L0,409.028 M378.028,25 L334.028,25 M307.083,95.944 L263.083,95.944 M236.139,166.889 L192.139,166.889 M165.194,237.833 L121.194,237.833"/><g><g stroke-dasharray="none"><path d="M378.028,22L384.028,25L378.028,28z" stroke="none" fill-opacity="1"/></g><g stroke-dasharray="none"><path d="M307.083,92.944L313.083,95.944L307.083,98.944z" stroke="none" fill-opacity="1"/></g><g stroke-dasharray="none"><path d="M236.139,163.889L242.139,166.889L236.139,169.889z" stroke="none" fill-opacity="1"/></g><g stroke-dasharray="none"><path d="M165.194,234.833L171.194,237.833L165.194,240.833z" stroke="none" fill-opacity="1"/></g></g></g></g><g width="149.5" height="74.5" transform="scale(1,1) translate(131.056,893.389)"><g stroke="#CEE7E9" stroke-opacity="1" stroke-width="1" stroke-dasharray="none" width="149.5" height="74.5" transform="scale(1,1) translate(0,0)" fill="#CEE7E9" fill-opacity="1"><rect width="149.5" height="74.5"/></g><g width="144.5" height="69.5" transform="scale(1,1) translate(2.5,2.5)"><text width="144.5" height="15.277776718139648" transform="scale(1,1) translate(0,27.111111640930176)" xml:space="preserve"><tspan xml:space="preserve" text-rendering="optimizeSpeed" font-size="13.88888888888889" font-weight="normal" font-style="normal" text-decoration="none" fill="#333333" opacity="1" x="50.627" text-anchor="start" y="12.5" textLength="43.24679946899414" style="font-family: Arial, Helvetica Neue, Helvetica, sans-serif;">Equipe</tspan></text></g></g><g width="144.637" height="20.944" transform="scale(1,1) translate(395.196,498.889)"><g stroke="#000000" stroke-opacity="1" stroke-width="0" stroke-dasharray="none" width="144.637" height="20.944" transform="scale(1,1) translate(0,0)" fill="none"><rect width="144.637" height="20.944"/></g><g width="138.97024536132812" height="15.277776718139648" transform="scale(1,1) translate(2.833,2.833)"><text width="138.97024536132812" height="15.277776718139648" transform="scale(1,1) translate(0,0)" xml:space="preserve"><tspan xml:space="preserve" text-rendering="optimizeSpeed" font-size="13.88888888888889" font-weight="normal" font-style="normal" text-decoration="none" fill="#333333" opacity="1" x="0" text-anchor="start" y="12.5" textLength="138.97024536132812" style="font-family: Arial, Helvetica Neue, Helvetica, sans-serif;">Falta de entrosamento</tspan></text></g></g><g width="132.267" height="20.944" transform="scale(1,1) translate(336.622,569.833)"><g stroke="#000000" stroke-opacity="1" stroke-width="0" stroke-dasharray="none" width="132.267" height="20.944" transform="scale(1,1) translate(0,0)" fill="none"><rect width="132.267" height="20.944"/></g><g width="126.60044860839844" height="15.277776718139648" transform="scale(1,1) translate(2.833,2.833)"><text width="126.60044860839844" height="15.277776718139648" transform="scale(1,1) translate(0,0)" xml:space="preserve"><tspan xml:space="preserve" text-rendering="optimizeSpeed" font-size="13.88888888888889" font-weight="normal" font-style="normal" text-decoration="none" fill="#333333" opacity="1" x="0" text-anchor="start" y="12.5" textLength="126.60044860839844" style="font-family: Arial, Helvetica Neue, Helvetica, sans-serif;">Horários conflitantes</tspan></text></g></g><g width="409.028" height="409.028" transform="scale(1,1) translate(230.891,75.419)"><g fill="#545454" stroke="#545454" stroke-opacity="1" transform="scale(1,1) translate(0,0)"><path fill="none" stroke-width="1" stroke-dasharray="none" d="M122.831,122.831 L384.028,384.028 M122.831,122.831 L0,0 M384.028,384.028 L409.028,409.028 M116.831,122.831 L72.831,122.831 M182.109,188.109 L138.109,188.109 M247.387,253.387 L203.387,253.387 M312.665,318.665 L268.665,318.665 M378.028,384.028 L334.028,384.028"/><g><g stroke-dasharray="none"><path d="M116.831,119.831L122.831,122.831L116.831,125.831z" stroke="none" fill-opacity="1"/></g><g stroke-dasharray="none"><path d="M182.109,185.109L188.109,188.109L182.109,191.109z" stroke="none" fill-opacity="1"/></g><g stroke-dasharray="none"><path d="M247.387,250.387L253.387,253.387L247.387,256.387z" stroke="none" fill-opacity="1"/></g><g stroke-dasharray="none"><path d="M312.665,315.665L318.665,318.665L312.665,321.665z" stroke="none" fill-opacity="1"/></g><g stroke-dasharray="none"><path d="M378.028,381.028L384.028,384.028L378.028,387.028z" stroke="none" fill-opacity="1"/></g></g></g></g><g width="150.167" height="74.833" transform="scale(1,1) translate(155.722,0.5)"><g stroke="#CEE7E9" stroke-opacity="1" stroke-width="1" stroke-dasharray="none" width="150.167" height="74.833" transform="scale(1,1) translate(0,0)" fill="#CEE7E9" fill-opacity="1"><rect width="150.167" height="74.833"/></g><g width="145.16666666666666" height="69.83333333333333" transform="scale(1,1) translate(2.5,2.5)"><text width="145.16666666666666" height="15.277776718139648" transform="scale(1,1) translate(0,27.27777830759684)" xml:space="preserve"><tspan xml:space="preserve" text-rendering="optimizeSpeed" font-size="13.88888888888889" font-weight="normal" font-style="normal" text-decoration="none" fill="#333333" opacity="1" x="47.878" text-anchor="start" y="12.5" textLength="49.41135025024414" style="font-family: Arial, Helvetica Neue, Helvetica, sans-serif;">Pessoal</tspan></text></g></g><g width="409.028" height="409.028" transform="scale(1,1) translate(745.666,484.361)"><g fill="#545454" stroke="#545454" stroke-opacity="1" transform="scale(1,1) translate(0,0)"><path fill="none" stroke-width="1" stroke-dasharray="none" d="M384.028,25 L57.639,351.389 M384.028,25 L409.028,0 M57.639,351.389 L0,409.028 M378.028,25 L334.028,25 M312.75,90.278 L268.75,90.278 M247.472,155.556 L203.472,155.556 M182.194,220.833 L138.194,220.833 M116.917,286.111 L72.917,286.111 M51.639,351.389 L7.639,351.389"/><g><g stroke-dasharray="none"><path d="M378.028,22L384.028,25L378.028,28z" stroke="none" fill-opacity="1"/></g><g stroke-dasharray="none"><path d="M312.75,87.278L318.75,90.278L312.75,93.278z" stroke="none" fill-opacity="1"/></g><g stroke-dasharray="none"><path d="M247.472,152.556L253.472,155.556L247.472,158.556z" stroke="none" fill-opacity="1"/></g><g stroke-dasharray="none"><path d="M182.194,217.833L188.194,220.833L182.194,223.833z" stroke="none" fill-opacity="1"/></g><g stroke-dasharray="none"><path d="M116.917,283.111L122.917,286.111L116.917,289.111z" stroke="none" fill-opacity="1"/></g><g stroke-dasharray="none"><path d="M51.639,348.389L57.639,351.389L51.639,354.389z" stroke="none" fill-opacity="1"/></g></g></g></g><g width="150.167" height="74.833" transform="scale(1,1) translate(670.583,893.389)"><g stroke="#CEE7E9" stroke-opacity="1" stroke-width="1" stroke-dasharray="none" width="150.167" height="74.833" transform="scale(1,1) translate(0,0)" fill="#CEE7E9" fill-opacity="1"><rect width="150.167" height="74.833"/></g><g width="145.16666666666666" height="69.83333333333333" transform="scale(1,1) translate(2.5,2.5)"><text width="145.16666666666666" height="15.277776718139648" transform="scale(1,1) translate(0,27.27777830759684)" xml:space="preserve"><tspan xml:space="preserve" text-rendering="optimizeSpeed" font-size="13.88888888888889" font-weight="normal" font-style="normal" text-decoration="none" fill="#333333" opacity="1" x="40.153" text-anchor="start" y="12.5" textLength="64.86002349853516" style="font-family: Arial, Helvetica Neue, Helvetica, sans-serif;">Faculdade</tspan></text></g></g><g width="177.314" height="15.278" transform="scale(1,1) translate(126.408,190.611)"><g stroke="#545454" stroke-opacity="1" stroke-width="0" stroke-dasharray="none" width="177.314" height="15.278" transform="scale(1,1) translate(0,0)" fill="none"><rect width="177.314" height="15.278"/></g><g width="177.31387329101562" height="15.277776718139648" transform="scale(1,1) translate(0,0)"><text width="177.31387329101562" height="15.277776718139648" transform="scale(1,1) translate(0,0)" xml:space="preserve"><tspan xml:space="preserve" text-rendering="optimizeSpeed" font-size="13.88888888888889" font-weight="normal" font-style="normal" text-decoration="none" fill="#333333" opacity="1" x="0" text-anchor="start" y="12.5" textLength="177.31387329101562" style="font-family: Arial, Helvetica Neue, Helvetica, sans-serif;">Falta de experiência Técnica</tspan></text></g></g><g width="104.98" height="15.278" transform="scale(1,1) translate(264.02,255.889)"><g stroke="#545454" stroke-opacity="1" stroke-width="0" stroke-dasharray="none" width="104.98" height="15.278" transform="scale(1,1) translate(0,0)" fill="none"><rect width="104.98" height="15.278"/></g><g width="104.98045349121094" height="15.277776718139648" transform="scale(1,1) translate(0,0)"><text width="104.98045349121094" height="15.277776718139648" transform="scale(1,1) translate(0,0)" xml:space="preserve"><tspan xml:space="preserve" text-rendering="optimizeSpeed" font-size="13.88888888888889" font-weight="normal" font-style="normal" text-decoration="none" fill="#333333" opacity="1" x="0" text-anchor="start" y="12.5" textLength="104.98045349121094" style="font-family: Arial, Helvetica Neue, Helvetica, sans-serif;">Má infraestrutura</tspan></text></g></g><g width="125.061" height="15.278" transform="scale(1,1) translate(309.217,321.167)"><g stroke="#545454" stroke-opacity="1" stroke-width="0" stroke-dasharray="none" width="125.061" height="15.278" transform="scale(1,1) translate(0,0)" fill="none"><rect width="125.061" height="15.278"/></g><g width="125.0610122680664" height="15.277776718139648" transform="scale(1,1) translate(0,0)"><text width="125.0610122680664" height="15.277776718139648" transform="scale(1,1) translate(0,0)" xml:space="preserve"><tspan xml:space="preserve" text-rendering="optimizeSpeed" font-size="13.88888888888889" font-weight="normal" font-style="normal" text-decoration="none" fill="#333333" opacity="1" x="0" text-anchor="start" y="12.5" textLength="125.0610122680664" style="font-family: Arial, Helvetica Neue, Helvetica, sans-serif;">Problemas pessoais</tspan></text></g></g><g width="60.476" height="20.944" transform="scale(1,1) translate(337.468,640.778)"><g stroke="#000000" stroke-opacity="1" stroke-width="0" stroke-dasharray="none" width="60.476" height="20.944" transform="scale(1,1) translate(0,0)" fill="none"><rect width="60.476" height="20.944"/></g><g width="54.809566497802734" height="15.277776718139648" transform="scale(1,1) translate(2.833,2.833)"><text width="54.809566497802734" height="15.277776718139648" transform="scale(1,1) translate(0,0)" xml:space="preserve"><tspan xml:space="preserve" text-rendering="optimizeSpeed" font-size="13.88888888888889" font-weight="normal" font-style="normal" text-decoration="none" fill="#333333" opacity="1" x="0" text-anchor="start" y="12.5" textLength="54.809566497802734" style="font-family: Arial, Helvetica Neue, Helvetica, sans-serif;">Embates</tspan></text></g></g><g width="104.503" height="20.944" transform="scale(1,1) translate(222.497,711.722)"><g stroke="#000000" stroke-opacity="1" stroke-width="0" stroke-dasharray="none" width="104.503" height="20.944" transform="scale(1,1) translate(0,0)" fill="none"><rect width="104.503" height="20.944"/></g><g width="98.83625030517578" height="15.277776718139648" transform="scale(1,1) translate(2.833,2.833)"><text width="98.83625030517578" height="15.277776718139648" transform="scale(1,1) translate(0,0)" xml:space="preserve"><tspan xml:space="preserve" text-rendering="optimizeSpeed" font-size="13.88888888888889" font-weight="normal" font-style="normal" text-decoration="none" fill="#333333" opacity="1" x="0" text-anchor="start" y="12.5" textLength="98.83625030517578" style="font-family: Arial, Helvetica Neue, Helvetica, sans-serif;">Falta de diálogo</tspan></text></g></g><g width="46.326" height="15.278" transform="scale(1,1) translate(1033.368,501.722)"><g stroke="#545454" stroke-opacity="1" stroke-width="0" stroke-dasharray="none" width="46.326" height="15.278" transform="scale(1,1) translate(0,0)" fill="none"><rect width="46.326" height="15.278"/></g><g width="46.32568359375" height="15.277776718139648" transform="scale(1,1) translate(0,0)"><text width="46.32568359375" height="15.277776718139648" transform="scale(1,1) translate(0,0)" xml:space="preserve"><tspan xml:space="preserve" text-rendering="optimizeSpeed" font-size="13.88888888888889" font-weight="normal" font-style="normal" text-decoration="none" fill="#333333" opacity="1" x="0" text-anchor="start" y="12.5" textLength="46.32568359375" style="font-family: Arial, Helvetica Neue, Helvetica, sans-serif;">Estágio</tspan></text></g></g><g width="36.275" height="15.278" transform="scale(1,1) translate(978.141,567)"><g stroke="#545454" stroke-opacity="1" stroke-width="0" stroke-dasharray="none" width="36.275" height="15.278" transform="scale(1,1) translate(0,0)" fill="none"><rect width="36.275" height="15.278"/></g><g width="36.27522659301758" height="15.277776718139648" transform="scale(1,1) translate(0,0)"><text width="36.27522659301758" height="15.277776718139648" transform="scale(1,1) translate(0,0)" xml:space="preserve"><tspan xml:space="preserve" text-rendering="optimizeSpeed" font-size="13.88888888888889" font-weight="normal" font-style="normal" text-decoration="none" fill="#333333" opacity="1" x="0" text-anchor="start" y="12.5" textLength="36.27522659301758" style="font-family: Arial, Helvetica Neue, Helvetica, sans-serif;">PIBIC</tspan></text></g></g><g width="132.785" height="15.278" transform="scale(1,1) translate(816.353,632.278)"><g stroke="#545454" stroke-opacity="1" stroke-width="0" stroke-dasharray="none" width="132.785" height="15.278" transform="scale(1,1) translate(0,0)" fill="none"><rect width="132.785" height="15.278"/></g><g width="132.78533935546875" height="15.277776718139648" transform="scale(1,1) translate(0,0)"><text width="132.78533935546875" height="15.277776718139648" transform="scale(1,1) translate(0,0)" xml:space="preserve"><tspan xml:space="preserve" text-rendering="optimizeSpeed" font-size="13.88888888888889" font-weight="normal" font-style="normal" text-decoration="none" fill="#333333" opacity="1" x="0" text-anchor="start" y="12.5" textLength="132.78533935546875" style="font-family: Arial, Helvetica Neue, Helvetica, sans-serif;">Excesso de disciplina</tspan></text></g></g><g width="409.028" height="409.028" transform="scale(1,1) translate(770.666,75.333)"><g fill="#545454" stroke="#545454" stroke-opacity="1" transform="scale(1,1) translate(0,0)"><path fill="none" stroke-width="1" stroke-dasharray="none" d="M187.639,187.639 L384.028,384.028 M187.639,187.639 L0,0 M384.028,384.028 L409.028,409.028 M181.639,187.639 L137.639,187.639 M247.028,253.028 L203.028,253.028 M312.528,318.528 L268.528,318.528 M378.028,384.028 L334.028,384.028"/><g><g stroke-dasharray="none"><path d="M181.639,184.639L187.639,187.639L181.639,190.639z" stroke="none" fill-opacity="1"/></g><g stroke-dasharray="none"><path d="M247.028,250.028L253.028,253.028L247.028,256.028z" stroke="none" fill-opacity="1"/></g><g stroke-dasharray="none"><path d="M312.528,315.528L318.528,318.528L312.528,321.528z" stroke="none" fill-opacity="1"/></g><g stroke-dasharray="none"><path d="M378.028,381.028L384.028,384.028L378.028,387.028z" stroke="none" fill-opacity="1"/></g></g></g></g><g width="150.167" height="74.833" transform="scale(1,1) translate(695.583,0.5)"><g stroke="#CEE7E9" stroke-opacity="1" stroke-width="1" stroke-dasharray="none" width="150.167" height="74.833" transform="scale(1,1) translate(0,0)" fill="#CEE7E9" fill-opacity="1"><rect width="150.167" height="74.833"/></g><g width="145.16666666666666" height="69.83333333333333" transform="scale(1,1) translate(2.5,2.5)"><text width="145.16666666666666" height="15.277776718139648" transform="scale(1,1) translate(0,27.27777830759684)" xml:space="preserve"><tspan xml:space="preserve" text-rendering="optimizeSpeed" font-size="13.88888888888889" font-weight="normal" font-style="normal" text-decoration="none" fill="#333333" opacity="1" x="49.427" text-anchor="start" y="12.5" textLength="46.31211853027344" style="font-family: Arial, Helvetica Neue, Helvetica, sans-serif;">Matéria</tspan></text></g></g><g width="109.639" height="15.278" transform="scale(1,1) translate(774.221,697.556)"><g stroke="#545454" stroke-opacity="1" stroke-width="0" stroke-dasharray="none" width="109.639" height="15.278" transform="scale(1,1) translate(0,0)" fill="none"><rect width="109.639" height="15.278"/></g><g width="109.63947296142578" height="15.277776718139648" transform="scale(1,1) translate(0,0)"><text width="109.63947296142578" height="15.277776718139648" transform="scale(1,1) translate(0,0)" xml:space="preserve"><tspan xml:space="preserve" text-rendering="optimizeSpeed" font-size="13.88888888888889" font-weight="normal" font-style="normal" text-decoration="none" fill="#333333" opacity="1" x="0" text-anchor="start" y="12.5" textLength="109.63947296142578" style="font-family: Arial, Helvetica Neue, Helvetica, sans-serif;">Semana de prova</tspan></text></g></g><g width="190.945" height="15.278" transform="scale(1,1) translate(627.638,762.833)"><g stroke="#545454" stroke-opacity="1" stroke-width="0" stroke-dasharray="none" width="190.945" height="15.278" transform="scale(1,1) translate(0,0)" fill="none"><rect width="190.945" height="15.278"/></g><g width="190.94505310058594" height="15.277776718139648" transform="scale(1,1) translate(0,0)"><text width="190.94505310058594" height="15.277776718139648" transform="scale(1,1) translate(0,0)" xml:space="preserve"><tspan xml:space="preserve" text-rendering="optimizeSpeed" font-size="13.88888888888889" font-weight="normal" font-style="normal" text-decoration="none" fill="#333333" opacity="1" x="0" text-anchor="start" y="12.5" textLength="190.94505310058594" style="font-family: Arial, Helvetica Neue, Helvetica, sans-serif;">Trabalhos de outras disciplinas</tspan></text></g></g><g width="112.739" height="15.278" transform="scale(1,1) translate(795.567,255.333)"><g stroke="#545454" stroke-opacity="1" stroke-width="0" stroke-dasharray="none" width="112.739" height="15.278" transform="scale(1,1) translate(0,0)" fill="none"><rect width="112.739" height="15.278"/></g><g width="112.73870086669922" height="15.277776718139648" transform="scale(1,1) translate(0,0)"><text width="112.73870086669922" height="15.277776718139648" transform="scale(1,1) translate(0,0)" xml:space="preserve"><tspan xml:space="preserve" text-rendering="optimizeSpeed" font-size="13.88888888888889" font-weight="normal" font-style="normal" text-decoration="none" fill="#333333" opacity="1" x="0" text-anchor="start" y="12.5" textLength="112.73870086669922" style="font-family: Arial, Helvetica Neue, Helvetica, sans-serif;">Conteúdo extenso</tspan></text></g></g><g width="116.57" height="15.278" transform="scale(1,1) translate(636.735,828.111)"><g stroke="#545454" stroke-opacity="1" stroke-width="0" stroke-dasharray="none" width="116.57" height="15.278" transform="scale(1,1) translate(0,0)" fill="none"><rect width="116.57" height="15.278"/></g><g width="116.5703353881836" height="15.277776718139648" transform="scale(1,1) translate(0,0)"><text width="116.5703353881836" height="15.277776718139648" transform="scale(1,1) translate(0,0)" xml:space="preserve"><tspan xml:space="preserve" text-rendering="optimizeSpeed" font-size="13.88888888888889" font-weight="normal" font-style="normal" text-decoration="none" fill="#333333" opacity="1" x="0" text-anchor="start" y="12.5" textLength="116.5703353881836" style="font-family: Arial, Helvetica Neue, Helvetica, sans-serif;">Semestre reduzido</tspan></text></g></g><g width="92.638" height="15.278" transform="scale(1,1) translate(406.918,386.444)"><g stroke="#545454" stroke-opacity="1" stroke-width="0" stroke-dasharray="none" width="92.638" height="15.278" transform="scale(1,1) translate(0,0)" fill="none"><rect width="92.638" height="15.278"/></g><g width="92.63778686523438" height="15.277776718139648" transform="scale(1,1) translate(0,0)"><text width="92.63778686523438" height="15.277776718139648" transform="scale(1,1) translate(0,0)" xml:space="preserve"><tspan xml:space="preserve" text-rendering="optimizeSpeed" font-size="13.88888888888889" font-weight="normal" font-style="normal" text-decoration="none" fill="#333333" opacity="1" x="0" text-anchor="start" y="12.5" textLength="92.63778686523438" style="font-family: Arial, Helvetica Neue, Helvetica, sans-serif;">Procrastinação</tspan></text></g></g><g width="84.927" height="15.5" transform="scale(1,1) translate(888.767,320.611)"><g stroke="#545454" stroke-opacity="1" stroke-width="0" stroke-dasharray="none" width="84.927" height="15.5" transform="scale(1,1) translate(0,0)" fill="none"><rect width="84.927" height="15.5"/></g><g width="84.92701721191406" height="15.500031000061995" transform="scale(1,1) translate(0,0)"><text width="84.92701721191406" height="15.277776718139648" transform="scale(1,1) translate(0,0.11112714096117315)" xml:space="preserve"><tspan xml:space="preserve" text-rendering="optimizeSpeed" font-size="13.88888888888889" font-weight="normal" font-style="normal" text-decoration="none" fill="#333333" opacity="1" x="0" text-anchor="start" y="12.5" textLength="84.92701721191406" style="font-family: Arial, Helvetica Neue, Helvetica, sans-serif;">Aula síncrona</tspan></text></g></g><g width="185.303" height="15.5" transform="scale(1,1) translate(853.891,386.111)"><g stroke="#545454" stroke-opacity="1" stroke-width="0" stroke-dasharray="none" width="185.303" height="15.5" transform="scale(1,1) translate(0,0)" fill="none"><rect width="185.303" height="15.5"/></g><g width="185.3026885986328" height="15.5" transform="scale(1,1) translate(0,0)"><text width="185.3026885986328" height="15.277776718139648" transform="scale(1,1) translate(0,0.11111164093017578)" xml:space="preserve"><tspan xml:space="preserve" text-rendering="optimizeSpeed" font-size="13.88888888888889" font-weight="normal" font-style="normal" text-decoration="none" fill="#333333" opacity="1" x="0" text-anchor="start" y="12.5" textLength="185.3026885986328" style="font-family: Arial, Helvetica Neue, Helvetica, sans-serif;">Grande variedade de técnicas</tspan></text></g></g><g width="218.472" height="15.5" transform="scale(1,1) translate(886.222,451.611)"><g stroke="#545454" stroke-opacity="1" stroke-width="0" stroke-dasharray="none" width="218.472" height="15.5" transform="scale(1,1) translate(0,0)" fill="none"><rect width="218.472" height="15.5"/></g><g width="218.47190856933594" height="15.5" transform="scale(1,1) translate(0,0)"><text width="218.47190856933594" height="15.277776718139648" transform="scale(1,1) translate(0,0.11111164093017578)" xml:space="preserve"><tspan xml:space="preserve" text-rendering="optimizeSpeed" font-size="13.88888888888889" font-weight="normal" font-style="normal" text-decoration="none" fill="#333333" opacity="1" x="0" text-anchor="start" y="12.5" textLength="218.47190856933594" style="font-family: Arial, Helvetica Neue, Helvetica, sans-serif;">Muitos artefatos a serem entregues</tspan></text></g></g><g width="188.382" height="15.449" transform="scale(1,1) translate(376.537,451.722)"><g stroke="#545454" stroke-opacity="1" stroke-width="0" stroke-dasharray="none" width="188.382" height="15.449" transform="scale(1,1) translate(0,0)" fill="none"><rect width="188.382" height="15.449"/></g><g width="188.38157653808594" height="15.448717417837202" transform="scale(1,1) translate(0,0)"><text width="188.38157653808594" height="15.277776718139648" transform="scale(1,1) translate(0,0.08547034984877655)" xml:space="preserve"><tspan xml:space="preserve" text-rendering="optimizeSpeed" font-size="13.88888888888889" font-weight="normal" font-style="normal" text-decoration="none" fill="#333333" opacity="1" x="0" text-anchor="start" y="12.5" textLength="188.38157653808594" style="font-family: Arial, Helvetica Neue, Helvetica, sans-serif;">Falta de conhecimento técnico</tspan></text></g></g></g></svg>