<?xml version="1.0" standalone="no"?><!DOCTYPE svg PUBLIC "-//W3C//DTD SVG 1.1//EN" "http://www.w3.org/Graphics/SVG/1.1/DTD/svg11.dtd"><svg xmlns="http://www.w3.org/2000/svg" version="1.1" width="1087.333" height="733.167" xmlns:xlink="http://www.w3.org/1999/xlink" xlink="http://www.w3.org/1999/xlink" style="position:relative;overflow:hidden;" viewBox="744.222 117.778 1087.333 733.167"><defs/><g><g width="558.5" height="0" transform="scale(1,1) translate(1111.055,484.361)"><g fill="#545454" stroke="#545454" stroke-opacity="1" transform="scale(1,1) translate(0,0)"><path fill="none" stroke-width="1" stroke-dasharray="none" d="M0,0 L279.25,0 M0,0 L0,0 M552.5,0 L279.25,0 M0,0 L0,0 M0,0 L0,0 M279.25,0 L279.25,0"/><g><g stroke-dasharray="none"><path d="M552.5,-3L558.5,0L552.5,3z" stroke="none" fill-opacity="1"/></g></g></g></g><g width="149.5" height="50.167" transform="scale(1,1) translate(1669.555,459.361)"><g stroke="#CEE7E9" stroke-opacity="1" stroke-width="1" stroke-dasharray="none" width="149.5" height="50.167" transform="scale(1,1) translate(0,0)" fill="#CEE7E9" fill-opacity="1"><rect width="149.5" height="50.167"/></g><g width="144.5" height="45.166666666666664" transform="scale(1,1) translate(2.5,2.5)"><text width="144.5" height="30.555553436279297" transform="scale(1,1) translate(0,7.305556615193684)" xml:space="preserve"><tspan xml:space="preserve" text-rendering="optimizeSpeed" font-size="13.88888888888889" font-weight="normal" font-style="normal" text-decoration="none" fill="#333333" opacity="1" x="8.546" text-anchor="start" y="12.5" textLength="123.54869079589844" style="font-family: Arial, Helvetica Neue, Helvetica, sans-serif;">Boa organização da</tspan><tspan xml:space="preserve" text-rendering="optimizeSpeed" font-size="13.88888888888889" font-weight="normal" font-style="normal" text-decoration="none" fill="#333333" opacity="1" x="51.396" text-anchor="start" y="27.778" textLength="41.70733642578125" style="font-family: Arial, Helvetica Neue, Helvetica, sans-serif;">equipe</tspan></text></g></g><g width="279.25" height="279.25" transform="scale(1,1) translate(831.805,484.361)"><g fill="#545454" stroke="#545454" stroke-opacity="1" transform="scale(1,1) translate(0,0)"><path fill="none" stroke-width="1" stroke-dasharray="none" d="M254.25,25 L58.417,220.833 M254.25,25 L279.25,0 M58.417,220.833 L0,279.25 M248.25,25 L204.25,25 M182.972,90.278 L138.972,90.278 M117.694,155.556 L73.694,155.556 M52.417,220.833 L8.417,220.833"/><g><g stroke-dasharray="none"><path d="M248.25,22L254.25,25L248.25,28z" stroke="none" fill-opacity="1"/></g><g stroke-dasharray="none"><path d="M182.972,87.278L188.972,90.278L182.972,93.278z" stroke="none" fill-opacity="1"/></g><g stroke-dasharray="none"><path d="M117.694,152.556L123.694,155.556L117.694,158.556z" stroke="none" fill-opacity="1"/></g><g stroke-dasharray="none"><path d="M52.417,217.833L58.417,220.833L52.417,223.833z" stroke="none" fill-opacity="1"/></g></g></g></g><g width="150.167" height="74.833" transform="scale(1,1) translate(756.722,763.611)"><g stroke="#CEE7E9" stroke-opacity="1" stroke-width="1" stroke-dasharray="none" width="150.167" height="74.833" transform="scale(1,1) translate(0,0)" fill="#CEE7E9" fill-opacity="1"><rect width="150.167" height="74.833"/></g><g width="145.16666666666666" height="69.83333333333333" transform="scale(1,1) translate(2.5,2.5)"><text width="145.16666666666666" height="15.277776718139648" transform="scale(1,1) translate(0,27.27777830759684)" xml:space="preserve"><tspan xml:space="preserve" text-rendering="optimizeSpeed" font-size="13.88888888888889" font-weight="normal" font-style="normal" text-decoration="none" fill="#333333" opacity="1" x="34.748" text-anchor="start" y="12.5" textLength="75.6700210571289" style="font-family: Arial, Helvetica Neue, Helvetica, sans-serif;">Metodologia</tspan></text></g></g><g width="50.924" height="15.278" transform="scale(1,1) translate(985.131,501.722)"><g stroke="#545454" stroke-opacity="1" stroke-width="0" stroke-dasharray="none" width="50.924" height="15.278" transform="scale(1,1) translate(0,0)" fill="none"><rect width="50.924" height="15.278"/></g><g width="50.92366409301758" height="15.277776718139648" transform="scale(1,1) translate(0,0)"><text width="50.92366409301758" height="15.277776718139648" transform="scale(1,1) translate(0,0)" xml:space="preserve"><tspan xml:space="preserve" text-rendering="optimizeSpeed" font-size="13.88888888888889" font-weight="normal" font-style="normal" text-decoration="none" fill="#333333" opacity="1" x="0" text-anchor="start" y="12.5" textLength="50.92366409301758" style="font-family: Arial, Helvetica Neue, Helvetica, sans-serif;">SCRUM</tspan></text></g></g><g width="279.25" height="279.25" transform="scale(1,1) translate(831.805,205.111)"><g fill="#545454" stroke="#545454" stroke-opacity="1" transform="scale(1,1) translate(0,0)"><path fill="none" stroke-width="1" stroke-dasharray="none" d="M57.75,57.75 L254.25,254.25 M57.75,57.75 L0,0 M254.25,254.25 L279.25,279.25 M51.75,57.75 L7.75,57.75 M117.25,123.25 L73.25,123.25 M182.75,188.75 L138.75,188.75 M248.25,254.25 L204.25,254.25"/><g><g stroke-dasharray="none"><path d="M51.75,54.75L57.75,57.75L51.75,60.75z" stroke="none" fill-opacity="1"/></g><g stroke-dasharray="none"><path d="M117.25,120.25L123.25,123.25L117.25,126.25z" stroke="none" fill-opacity="1"/></g><g stroke-dasharray="none"><path d="M182.75,185.75L188.75,188.75L182.75,191.75z" stroke="none" fill-opacity="1"/></g><g stroke-dasharray="none"><path d="M248.25,251.25L254.25,254.25L248.25,257.25z" stroke="none" fill-opacity="1"/></g></g></g></g><g width="150.167" height="74.833" transform="scale(1,1) translate(756.722,130.278)"><g stroke="#CEE7E9" stroke-opacity="1" stroke-width="1" stroke-dasharray="none" width="150.167" height="74.833" transform="scale(1,1) translate(0,0)" fill="#CEE7E9" fill-opacity="1"><rect width="150.167" height="74.833"/></g><g width="145.16666666666666" height="69.83333333333333" transform="scale(1,1) translate(2.5,2.5)"><text width="145.16666666666666" height="15.277776718139648" transform="scale(1,1) translate(0,27.27777830759684)" xml:space="preserve"><tspan xml:space="preserve" text-rendering="optimizeSpeed" font-size="13.88888888888889" font-weight="normal" font-style="normal" text-decoration="none" fill="#333333" opacity="1" x="7.089" text-anchor="start" y="12.5" textLength="130.9882049560547" style="font-family: Arial, Helvetica Neue, Helvetica, sans-serif;">Organização Técnica</tspan></text></g></g><g width="279.25" height="279.25" transform="scale(1,1) translate(1111.055,484.361)"><g fill="#545454" stroke="#545454" stroke-opacity="1" transform="scale(1,1) translate(0,0)"><path fill="none" stroke-width="1" stroke-dasharray="none" d="M254.25,25 L58.417,220.833 M254.25,25 L279.25,0 M58.417,220.833 L0,279.25 M248.25,25 L204.25,25 M182.972,90.278 L138.972,90.278 M117.694,155.556 L73.694,155.556 M52.417,220.833 L8.417,220.833"/><g><g stroke-dasharray="none"><path d="M248.25,22L254.25,25L248.25,28z" stroke="none" fill-opacity="1"/></g><g stroke-dasharray="none"><path d="M182.972,87.278L188.972,90.278L182.972,93.278z" stroke="none" fill-opacity="1"/></g><g stroke-dasharray="none"><path d="M117.694,152.556L123.694,155.556L117.694,158.556z" stroke="none" fill-opacity="1"/></g><g stroke-dasharray="none"><path d="M52.417,217.833L58.417,220.833L52.417,223.833z" stroke="none" fill-opacity="1"/></g></g></g></g><g width="150.167" height="74.833" transform="scale(1,1) translate(1035.972,763.611)"><g stroke="#CEE7E9" stroke-opacity="1" stroke-width="1" stroke-dasharray="none" width="150.167" height="74.833" transform="scale(1,1) translate(0,0)" fill="#CEE7E9" fill-opacity="1"><rect width="150.167" height="74.833"/></g><g width="145.16666666666666" height="69.83333333333333" transform="scale(1,1) translate(2.5,2.5)"><text width="145.16666666666666" height="15.277776718139648" transform="scale(1,1) translate(0,27.27777830759684)" xml:space="preserve"><tspan xml:space="preserve" text-rendering="optimizeSpeed" font-size="13.88888888888889" font-weight="normal" font-style="normal" text-decoration="none" fill="#333333" opacity="1" x="30.123" text-anchor="start" y="12.5" textLength="84.92024230957031" style="font-family: Arial, Helvetica Neue, Helvetica, sans-serif;">Comunicação</tspan></text></g></g><g width="36.333" height="15.278" transform="scale(1,1) translate(934.444,567)"><g stroke="#545454" stroke-opacity="1" stroke-width="0" stroke-dasharray="none" width="36.333" height="15.278" transform="scale(1,1) translate(0,0)" fill="none"><rect width="36.333" height="15.278"/></g><g width="36.33333333333333" height="15.277776718139648" transform="scale(1,1) translate(0,0)"><text width="36.33333333333333" height="15.277776718139648" transform="scale(1,1) translate(0,0)" xml:space="preserve"><tspan xml:space="preserve" text-rendering="optimizeSpeed" font-size="13.88888888888889" font-weight="normal" font-style="normal" text-decoration="none" fill="#333333" opacity="1" x="9.798" text-anchor="start" y="12.5" textLength="16.737194061279297" style="font-family: Arial, Helvetica Neue, Helvetica, sans-serif;">XP</tspan></text></g></g><g width="47.885" height="15.278" transform="scale(1,1) translate(857.614,632.278)"><g stroke="#545454" stroke-opacity="1" stroke-width="0" stroke-dasharray="none" width="47.885" height="15.278" transform="scale(1,1) translate(0,0)" fill="none"><rect width="47.885" height="15.278"/></g><g width="47.88547134399414" height="15.277776718139648" transform="scale(1,1) translate(0,0)"><text width="47.88547134399414" height="15.277776718139648" transform="scale(1,1) translate(0,0)" xml:space="preserve"><tspan xml:space="preserve" text-rendering="optimizeSpeed" font-size="13.88888888888889" font-weight="normal" font-style="normal" text-decoration="none" fill="#333333" opacity="1" x="0" text-anchor="start" y="12.5" textLength="47.88547134399414" style="font-family: Arial, Helvetica Neue, Helvetica, sans-serif;">Kanban</tspan></text></g></g><g width="50.171" height="15.278" transform="scale(1,1) translate(790.051,697.556)"><g stroke="#545454" stroke-opacity="1" stroke-width="0" stroke-dasharray="none" width="50.171" height="15.278" transform="scale(1,1) translate(0,0)" fill="none"><rect width="50.171" height="15.278"/></g><g width="50.170894622802734" height="15.277776718139648" transform="scale(1,1) translate(0,0)"><text width="50.170894622802734" height="15.277776718139648" transform="scale(1,1) translate(0,0)" xml:space="preserve"><tspan xml:space="preserve" text-rendering="optimizeSpeed" font-size="13.88888888888889" font-weight="normal" font-style="normal" text-decoration="none" fill="#333333" opacity="1" x="0" text-anchor="start" y="12.5" textLength="50.170894622802734" style="font-family: Arial, Helvetica Neue, Helvetica, sans-serif;">DevOps</tspan></text></g></g><g width="43.226" height="15.5" transform="scale(1,1) translate(796.328,255.111)"><g stroke="#545454" stroke-opacity="1" stroke-width="0" stroke-dasharray="none" width="43.226" height="15.5" transform="scale(1,1) translate(0,0)" fill="none"><rect width="43.226" height="15.5"/></g><g width="43.22645568847656" height="15.500031000061995" transform="scale(1,1) translate(0,0)"><text width="43.22645568847656" height="15.277776718139648" transform="scale(1,1) translate(0,0.11112714096117315)" xml:space="preserve"><tspan xml:space="preserve" text-rendering="optimizeSpeed" font-size="13.88888888888889" font-weight="normal" font-style="normal" text-decoration="none" fill="#333333" opacity="1" x="0" text-anchor="start" y="12.5" textLength="43.22645568847656" style="font-family: Arial, Helvetica Neue, Helvetica, sans-serif;">GitHub</tspan></text></g></g><g width="101.149" height="15.5" transform="scale(1,1) translate(803.906,320.611)"><g stroke="#545454" stroke-opacity="1" stroke-width="0" stroke-dasharray="none" width="101.149" height="15.5" transform="scale(1,1) translate(0,0)" fill="none"><rect width="101.149" height="15.5"/></g><g width="101.14881134033203" height="15.5" transform="scale(1,1) translate(0,0)"><text width="101.14881134033203" height="15.277776718139648" transform="scale(1,1) translate(0,0.11111164093017578)" xml:space="preserve"><tspan xml:space="preserve" text-rendering="optimizeSpeed" font-size="13.88888888888889" font-weight="normal" font-style="normal" text-decoration="none" fill="#333333" opacity="1" x="0" text-anchor="start" y="12.5" textLength="101.14881134033203" style="font-family: Arial, Helvetica Neue, Helvetica, sans-serif;">Padrão de Issue</tspan></text></g></g><g width="47.078" height="15.278" transform="scale(1,1) translate(1268.227,501.722)"><g stroke="#545454" stroke-opacity="1" stroke-width="0" stroke-dasharray="none" width="47.078" height="15.278" transform="scale(1,1) translate(0,0)" fill="none"><rect width="47.078" height="15.278"/></g><g width="47.07844924926758" height="15.277776718139648" transform="scale(1,1) translate(0,0)"><text width="47.07844924926758" height="15.277776718139648" transform="scale(1,1) translate(0,0)" xml:space="preserve"><tspan xml:space="preserve" text-rendering="optimizeSpeed" font-size="13.88888888888889" font-weight="normal" font-style="normal" text-decoration="none" fill="#333333" opacity="1" x="0" text-anchor="start" y="12.5" textLength="47.07844924926758" style="font-family: Arial, Helvetica Neue, Helvetica, sans-serif;">Discord</tspan></text></g></g><g width="57.122" height="15.278" transform="scale(1,1) translate(1192.905,567)"><g stroke="#545454" stroke-opacity="1" stroke-width="0" stroke-dasharray="none" width="57.122" height="15.278" transform="scale(1,1) translate(0,0)" fill="none"><rect width="57.122" height="15.278"/></g><g width="57.12212371826172" height="15.277776718139648" transform="scale(1,1) translate(0,0)"><text width="57.12212371826172" height="15.277776718139648" transform="scale(1,1) translate(0,0)" xml:space="preserve"><tspan xml:space="preserve" text-rendering="optimizeSpeed" font-size="13.88888888888889" font-weight="normal" font-style="normal" text-decoration="none" fill="#333333" opacity="1" x="0" text-anchor="start" y="12.5" textLength="57.12212371826172" style="font-family: Arial, Helvetica Neue, Helvetica, sans-serif;">Telegram</tspan></text></g></g><g width="67.166" height="15.278" transform="scale(1,1) translate(1117.584,632.278)"><g stroke="#545454" stroke-opacity="1" stroke-width="0" stroke-dasharray="none" width="67.166" height="15.278" transform="scale(1,1) translate(0,0)" fill="none"><rect width="67.166" height="15.278"/></g><g width="67.1657943725586" height="15.277776718139648" transform="scale(1,1) translate(0,0)"><text width="67.1657943725586" height="15.277776718139648" transform="scale(1,1) translate(0,0)" xml:space="preserve"><tspan xml:space="preserve" text-rendering="optimizeSpeed" font-size="13.88888888888889" font-weight="normal" font-style="normal" text-decoration="none" fill="#333333" opacity="1" x="0" text-anchor="start" y="12.5" textLength="67.1657943725586" style="font-family: Arial, Helvetica Neue, Helvetica, sans-serif;">Whats App</tspan></text></g></g><g width="77.983" height="15.278" transform="scale(1,1) translate(1041.489,697.556)"><g stroke="#545454" stroke-opacity="1" stroke-width="0" stroke-dasharray="none" width="77.983" height="15.278" transform="scale(1,1) translate(0,0)" fill="none"><rect width="77.983" height="15.278"/></g><g width="77.98258209228516" height="15.277776718139648" transform="scale(1,1) translate(0,0)"><text width="77.98258209228516" height="15.277776718139648" transform="scale(1,1) translate(0,0)" xml:space="preserve"><tspan xml:space="preserve" text-rendering="optimizeSpeed" font-size="13.88888888888889" font-weight="normal" font-style="normal" text-decoration="none" fill="#333333" opacity="1" x="0" text-anchor="start" y="12.5" textLength="77.98258209228516" style="font-family: Arial, Helvetica Neue, Helvetica, sans-serif;">Cordialidade</tspan></text></g></g><g width="146.701" height="15.5" transform="scale(1,1) translate(823.854,386.111)"><g stroke="#545454" stroke-opacity="1" stroke-width="0" stroke-dasharray="none" width="146.701" height="15.5" transform="scale(1,1) translate(0,0)" fill="none"><rect width="146.701" height="15.5"/></g><g width="146.7013702392578" height="15.5" transform="scale(1,1) translate(0,0)"><text width="146.7013702392578" height="15.277776718139648" transform="scale(1,1) translate(0,0.11111164093017578)" xml:space="preserve"><tspan xml:space="preserve" text-rendering="optimizeSpeed" font-size="13.88888888888889" font-weight="normal" font-style="normal" text-decoration="none" fill="#333333" opacity="1" x="0" text-anchor="start" y="12.5" textLength="146.7013702392578" style="font-family: Arial, Helvetica Neue, Helvetica, sans-serif;">Padrão de Pull Request</tspan></text></g></g><g width="145.121" height="15.5" transform="scale(1,1) translate(890.934,451.611)"><g stroke="#545454" stroke-opacity="1" stroke-width="0" stroke-dasharray="none" width="145.121" height="15.5" transform="scale(1,1) translate(0,0)" fill="none"><rect width="145.121" height="15.5"/></g><g width="145.12123107910156" height="15.5" transform="scale(1,1) translate(0,0)"><text width="145.12123107910156" height="15.277776718139648" transform="scale(1,1) translate(0,0.11111164093017578)" xml:space="preserve"><tspan xml:space="preserve" text-rendering="optimizeSpeed" font-size="13.88888888888889" font-weight="normal" font-style="normal" text-decoration="none" fill="#333333" opacity="1" x="0" text-anchor="start" y="12.5" textLength="145.12123107910156" style="font-family: Arial, Helvetica Neue, Helvetica, sans-serif;">Boa práticas de commit</tspan></text></g></g></g></svg>